# xmcd
#
# Track frame offsets:
#	150
#	20810
#	44060
#	66721
#	87385
#	107179
#	125992
#	147397
#	166455
#	186422
#	229705
#	245097
#	264458
#	287691
#	307883
#
# Disc length: 4648 seconds
#
# Revision: 0
# Processed by: cddbd v1.5.2PL0 Copyright (c) Steve Scherf et al.
# Submitted via: EasyCDDAExtractor 7.5.1.2
#
DISCID=f312260f
DTITLE=DJ Ice Krim - Esprit Gospel
DYEAR=2006
DGENRE=Gospel
TTITLE0=Annie Lenox - Into The West
TTITLE1=Kirk Franklin Feat Mary J Blige, R Kelly, Bono - Lean On Me
TTITLE2=Kirk Franklin - Let It Go
TTITLE3=LeAnn Rimes - Please Remember
TTITLE4=Melissa Etheridge - I Run For Life
TTITLE5=Rufus Wainwright - Halleluja
TTITLE6=Yolanda Adams - Victory
TTITLE7=Twista Feat Faith Evans - Hope
TTITLE8=Alicia Keys Feat Justin Timberlake - How Come You Don'T Call Me (Neptu
TTITLE8=nes Remix)
TTITLE9=Lady Marmelade (Thunderpuss Mix)
TTITLE10=Lewis Taylor and Carleen Anderson - 18 with a Bullet
TTITLE11=Oslo Gospel Choir - Chosen
TTITLE12=Kirk Franklin - Hosanna
TTITLE13=Kirk Franklin - He Reigns
TTITLE14=Jennifer Holliday - A Woman's Got The Power (Thunderpuss)
EXTD=
EXTT0=
EXTT1=
EXTT2=
EXTT3=
EXTT4=
EXTT5=
EXTT6=
EXTT7=
EXTT8=
EXTT9=
EXTT10=
EXTT11=
EXTT12=
EXTT13=
EXTT14=
PLAYORDER=
